<svg xmlns="http://www.w3.org/2000/svg" xmlns:xlink="http://www.w3.org/1999/xlink" viewBox="0 0 297.69 83.43"><defs><style>.cls-1{fill:none;}.cls-2{isolation:isolate;}.cls-3{fill:#7faf87;}.cls-4{fill:#ee4156;}.cls-5{clip-path:url(#clip-path);}.cls-6{fill:url(#linear-gradient);}.cls-7{opacity:0.4;}.cls-20,.cls-7{mix-blend-mode:multiply;}.cls-8{clip-path:url(#clip-path-2);}.cls-9{clip-path:url(#clip-path-3);}.cls-10{fill:url(#linear-gradient-2);}.cls-11{clip-path:url(#clip-path-4);}.cls-12{clip-path:url(#clip-path-5);}.cls-13{fill:url(#linear-gradient-3);}.cls-14{clip-path:url(#clip-path-6);}.cls-15{clip-path:url(#clip-path-7);}.cls-16{fill:url(#linear-gradient-4);}.cls-17{clip-path:url(#clip-path-8);}.cls-18{clip-path:url(#clip-path-9);}.cls-19{fill:url(#linear-gradient-5);}.cls-20{opacity:0.6;}.cls-21{clip-path:url(#clip-path-10);}.cls-22{clip-path:url(#clip-path-11);}.cls-23{fill:url(#linear-gradient-6);}.cls-24{fill:#fff;}.cls-25{fill:#80ae78;}</style><clipPath id="clip-path" transform="translate(21.69 0)"><path id="SVGID" class="cls-1" d="M7,23.89C.1,35.13-1.2,43.3,1,51c1.69,6.05,8.71,18,24,18S47.34,57.06,49,51c2.16-7.71.85-15.88-6.05-27.12C37.91,15.62,25,0,25,0S12.07,15.62,7,23.89"/></clipPath><linearGradient id="linear-gradient" x1="2299.95" y1="314.39" x2="2300.97" y2="314.39" gradientTransform="matrix(0, 123.75, 123.75, 0, -38858.89, -284675.61)" gradientUnits="userSpaceOnUse"><stop offset="0" stop-color="#fff"/><stop offset="0.09" stop-color="#fdeeee"/><stop offset="0.28" stop-color="#f9c3c2"/><stop offset="0.48" stop-color="#f48f8c"/><stop offset="0.58" stop-color="#f07e84"/><stop offset="0.79" stop-color="#e6516f"/><stop offset="1" stop-color="#da1f58"/></linearGradient><clipPath id="clip-path-2" transform="translate(21.69 0)"><rect id="SVGID-2" data-name="SVGID" class="cls-1" x="4.24" y="8.81" width="45.73" height="60.19"/></clipPath><clipPath id="clip-path-3" transform="translate(21.69 0)"><path id="SVGID-3" data-name="SVGID" class="cls-1" d="M14.57,26.62c-7.38,9-10.3,16.21-10.33,23.24V50a27.3,27.3,0,0,0,.25,3.49A25.9,25.9,0,0,0,7,61.42,23.94,23.94,0,0,0,25,69c15.33,0,22.35-11.94,24-18A25.49,25.49,0,0,0,50,44.25v0c0-5.85-2.07-12.3-7-20.33-2.54-4.15-7-10.14-10.92-15.08C27,13.58,18.79,21.5,14.57,26.62"/></clipPath><linearGradient id="linear-gradient-2" x1="2302.17" y1="423.48" x2="2303.18" y2="423.48" gradientTransform="matrix(0, -29.26, -29.26, 0, 12441.44, 67411.09)" xlink:href="#linear-gradient"/><clipPath id="clip-path-4" transform="translate(21.69 0)"><rect id="SVGID-4" data-name="SVGID" class="cls-1" y="8.81" width="45.74" height="60.19"/></clipPath><clipPath id="clip-path-5" transform="translate(21.69 0)"><path id="SVGID-5" data-name="SVGID" class="cls-1" d="M7,23.89c-4.89,8-7,14.41-7,20.22v.19A25.12,25.12,0,0,0,1,51c1.69,6.05,8.71,18,24,18a23.94,23.94,0,0,0,18-7.58,25.9,25.9,0,0,0,2.53-7.89c1.1-8.21-1.4-16.39-10.09-26.91C31.18,21.5,23,13.58,17.92,8.81,14.05,13.75,9.54,19.74,7,23.89"/></clipPath><linearGradient id="linear-gradient-3" x1="2301.76" y1="403.47" x2="2302.77" y2="403.47" gradientTransform="matrix(0, -37.84, -37.84, 0, 15312.31, 87141.8)" xlink:href="#linear-gradient"/><clipPath id="clip-path-6" transform="translate(21.69 0)"><rect id="SVGID-6" data-name="SVGID" class="cls-1" x="6.16" y="18.27" width="43.82" height="50.73"/></clipPath><clipPath id="clip-path-7" transform="translate(21.69 0)"><path id="SVGID-7" data-name="SVGID" class="cls-1" d="M21.46,29.84C11,37.93,6.94,45.1,6.23,53.08A25.18,25.18,0,0,0,7,61.44,24,24,0,0,0,25,69c15.33,0,22.35-11.94,24-18A25.49,25.49,0,0,0,50,44.25v0c0-5.85-2.07-12.3-7-20.33-1-1.64-2.32-3.58-3.79-5.62-5.73,3.44-13.35,8.17-17.73,11.57"/></clipPath><linearGradient id="linear-gradient-4" x1="2301.66" y1="398.52" x2="2302.67" y2="398.52" gradientTransform="matrix(0, -40.81, -40.81, 0, 16311.97, 93979.34)" xlink:href="#linear-gradient"/><clipPath id="clip-path-8" transform="translate(21.69 0)"><rect id="SVGID-8" data-name="SVGID" class="cls-1" y="18.27" width="43.82" height="50.73"/></clipPath><clipPath id="clip-path-9" transform="translate(21.69 0)"><path id="SVGID-9" data-name="SVGID" class="cls-1" d="M7,23.89c-4.88,8-7,14.38-7,20.19v.26A25.23,25.23,0,0,0,1,51c1.69,6.05,8.71,18,24,18a24,24,0,0,0,18-7.56,25.18,25.18,0,0,0,.81-8.36c-.71-8-4.81-15.15-15.23-23.24-4.38-3.4-12-8.13-17.73-11.57-1.47,2-2.79,4-3.8,5.62"/></clipPath><linearGradient id="linear-gradient-5" x1="2302.32" y1="431.45" x2="2303.33" y2="431.45" gradientTransform="matrix(0, -26.84, -26.84, 0, 11622.68, 61845.6)" xlink:href="#linear-gradient"/><clipPath id="clip-path-10" transform="translate(21.69 0)"><rect id="SVGID-10" data-name="SVGID" class="cls-1" x="0.22" y="22.63" width="32.95" height="44.64"/></clipPath><clipPath id="clip-path-11" transform="translate(21.69 0)"><path id="SVGID-11" data-name="SVGID" class="cls-1" d="M.22,47.39A26.37,26.37,0,0,0,1,51c1.3,4.64,5.73,12.73,14.62,16.26l17.6-17.59h0L25,22.63Z"/></clipPath><linearGradient id="linear-gradient-6" x1="2253.45" y1="375.55" x2="2254.47" y2="375.55" gradientTransform="matrix(41.78, -0.01, -0.01, -41.78, -94164.07, 15749.75)" xlink:href="#linear-gradient"/></defs><title>Logo_276x69px</title><g class="cls-2"><g id="Layer_2" data-name="Layer 2"><g id="Layer_1-2" data-name="Layer 1"><polygon class="cls-3" points="90.89 35.04 84.3 53.09 82.42 53.09 75.83 35.04 77.92 35.04 83.35 50.84 88.78 35.04 90.89 35.04"/><path class="cls-3" d="M75.49,28.79H73.13V26.43h2.36Zm-.22,24.3h-1.9V35h1.9Z" transform="translate(21.69 0)"/><path class="cls-3" d="M96,44.48H83.41a8.07,8.07,0,0,0,1.51,5.27,5.3,5.3,0,0,0,4.36,1.84A6.63,6.63,0,0,0,92,51.1a7.92,7.92,0,0,0,2.3-1.68l1.43,1.13a10,10,0,0,1-2.92,2.1,8.84,8.84,0,0,1-3.62.66A7.88,7.88,0,0,1,85,52.26a6.56,6.56,0,0,1-2.6-3.12,12.91,12.91,0,0,1-.89-5.08A14.18,14.18,0,0,1,82,40.15a8.62,8.62,0,0,1,1.42-2.88,6.48,6.48,0,0,1,2.3-1.81,7.23,7.23,0,0,1,3-.64,7.36,7.36,0,0,1,3,.59A6.29,6.29,0,0,1,94,37.14a7.83,7.83,0,0,1,1.44,2.77,12.71,12.71,0,0,1,.5,3.71ZM94,42.94A16.58,16.58,0,0,0,93.87,41a7.63,7.63,0,0,0-.46-1.47,4.65,4.65,0,0,0-1.86-2.21,5.29,5.29,0,0,0-5.64,0,4.82,4.82,0,0,0-1.86,2.22,8.62,8.62,0,0,0-.47,1.54,13.82,13.82,0,0,0-.17,1.86Z" transform="translate(21.69 0)"/><path class="cls-3" d="M108.58,53.09h-1.65a4.49,4.49,0,0,1-2.37-.6,3.86,3.86,0,0,1-1.5-1.67,5.7,5.7,0,0,1-.5-2.45V36.47h-2.47V35h2.47V29.27h1.94V35h4.08v1.43H104.5V48.41q0,3,2.76,3h1.32Z" transform="translate(21.69 0)"/><path class="cls-3" d="M128.2,53.09h-1.9V41.9a5.66,5.66,0,0,0-1.28-4,4.74,4.74,0,0,0-3.69-1.39,5.66,5.66,0,0,0-2.76.63A4.14,4.14,0,0,0,116.83,39a6.59,6.59,0,0,0-.61,2.92V53.09h-1.9V35h1.9v2.14a6.71,6.71,0,0,1,5.33-2.36,6.19,6.19,0,0,1,6.65,6.73Z" transform="translate(21.69 0)"/><path class="cls-3" d="M147.78,53.09h-1.94V51.3a6.37,6.37,0,0,1-2.36,1.57,9.23,9.23,0,0,1-3.14.44,14.39,14.39,0,0,1-2.3-.16,6.08,6.08,0,0,1-1.73-.53,4.62,4.62,0,0,1-1.28-1,4.84,4.84,0,0,1-1.3-3.51,4.68,4.68,0,0,1,1.67-3.84A7.08,7.08,0,0,1,140,42.94h5.83v-2a4.28,4.28,0,0,0-1.2-3.32,5.69,5.69,0,0,0-3.88-1.08,7.17,7.17,0,0,0-3,.52,5,5,0,0,0-2,1.76l-1.37-1.2a6.27,6.27,0,0,1,1.66-1.67,6.12,6.12,0,0,1,2.06-.84,12.36,12.36,0,0,1,2.64-.26q7,0,7,5.91Zm-1.94-6.29V44.48h-5.61q-4.6,0-4.6,3.64a3.11,3.11,0,0,0,1.14,2.65,6,6,0,0,0,3.57.86,10.49,10.49,0,0,0,2.55-.27,4.14,4.14,0,0,0,1.94-1.12c.67-.62,1-1.77,1-3.44" transform="translate(21.69 0)"/><path class="cls-3" d="M180.74,53.09h-1.9V41.9a5.7,5.7,0,0,0-1.28-4,4.74,4.74,0,0,0-3.69-1.39,5.06,5.06,0,0,0-3.72,1.36,4.94,4.94,0,0,0-1.37,3.68V53.09h-1.91V41.9a5.66,5.66,0,0,0-1.28-4,4.74,4.74,0,0,0-3.69-1.39,5.66,5.66,0,0,0-2.76.63A4.14,4.14,0,0,0,157.4,39a6.59,6.59,0,0,0-.61,2.92V53.09h-1.9V35h1.9v2.14a6.74,6.74,0,0,1,5.36-2.36,7.36,7.36,0,0,1,2.45.39,5.65,5.65,0,0,1,2,1.1,5.59,5.59,0,0,1,1.4,1.81,6.81,6.81,0,0,1,6.14-3.3,7.88,7.88,0,0,1,2.7.44,5.66,5.66,0,0,1,2.05,1.28,6.59,6.59,0,0,1,1.9,5Z" transform="translate(21.69 0)"/><path class="cls-4" d="M201.83,53.09h-3.75v-2a6,6,0,0,1-1.46,1.35,5.44,5.44,0,0,1-1.61.69,8.35,8.35,0,0,1-2,.21,7.31,7.31,0,0,1-2.63-.46,5.86,5.86,0,0,1-2-1.22A6,6,0,0,1,187,49.44a11,11,0,0,1-.61-2.67,30.1,30.1,0,0,1-.15-3.19,29.71,29.71,0,0,1,.15-3.17,10.83,10.83,0,0,1,.61-2.66,6,6,0,0,1,1.36-2.18,5.67,5.67,0,0,1,2-1.25,8,8,0,0,1,5.39,0A5.55,5.55,0,0,1,198,36v-9.6h3.83ZM198,43.59a15.51,15.51,0,0,0-.29-3.29,4,4,0,0,0-1.16-2.17,3.45,3.45,0,0,0-2.48-.82,3.55,3.55,0,0,0-2.5.82,4,4,0,0,0-1.17,2.18,15.34,15.34,0,0,0-.3,3.28,15.61,15.61,0,0,0,.3,3.3,4,4,0,0,0,1.17,2.19,3.51,3.51,0,0,0,2.5.83,3.14,3.14,0,0,0,3.14-1.67,11,11,0,0,0,.79-4.65" transform="translate(21.69 0)"/><path class="cls-4" d="M223,44.7H210.7a6.48,6.48,0,0,0,.57,2.84,4.15,4.15,0,0,0,1.63,1.83,5.08,5.08,0,0,0,2.65.65,6.26,6.26,0,0,0,2.54-.44,7.57,7.57,0,0,0,2.07-1.5l2.43,2.27a10.6,10.6,0,0,1-3.15,2.26,9.84,9.84,0,0,1-4,.7,10.32,10.32,0,0,1-3.4-.53,6.85,6.85,0,0,1-2.72-1.68,7.82,7.82,0,0,1-1.8-3,14.1,14.1,0,0,1-.64-4.5,12.58,12.58,0,0,1,1-5.23A7.5,7.5,0,0,1,210.72,35,7.76,7.76,0,0,1,215,33.87,7.93,7.93,0,0,1,219.29,35a7.32,7.32,0,0,1,2.79,3.22A11.41,11.41,0,0,1,223,43Zm-3.79-2.65a7.35,7.35,0,0,0-.51-2.58,3.82,3.82,0,0,0-1.44-1.76,4,4,0,0,0-2.31-.65,4.06,4.06,0,0,0-2.31.65,4,4,0,0,0-1.48,1.76,5.12,5.12,0,0,0-.34,1c0,.3-.1.82-.15,1.55Z" transform="translate(21.69 0)"/><path class="cls-4" d="M236,53.09h-2.28a5.35,5.35,0,0,1-2.87-.73,4.67,4.67,0,0,1-1.76-1.93,5.89,5.89,0,0,1-.59-2.62V37.37h-2.16V34.44h2.16V28.68h3.83v5.76H236v2.93h-3.67V47.62q0,2.22,2.1,2.22H236Z" transform="translate(21.69 0)"/><path class="cls-4" d="M255.84,43.58a17,17,0,0,1-.47,4.39,7,7,0,0,1-1.78,3.09,8.27,8.27,0,0,1-11.34,0,7.13,7.13,0,0,1-1.76-3.1,16.86,16.86,0,0,1-.49-4.38,16.57,16.57,0,0,1,.5-4.35,7.23,7.23,0,0,1,1.75-3.11A6.87,6.87,0,0,1,243.7,35a8,8,0,0,1,1.91-.8,8.61,8.61,0,0,1,2.29-.3,8.28,8.28,0,0,1,3.31.62,7.21,7.21,0,0,1,4.15,4.73,16.9,16.9,0,0,1,.48,4.36m-3.82,0a15.45,15.45,0,0,0-.26-3.13,3.91,3.91,0,0,0-1.06-2.07,3.71,3.71,0,0,0-2.8-1.08,3.77,3.77,0,0,0-2.78,1.08,4,4,0,0,0-1,2.07,16.3,16.3,0,0,0-.25,3.13,16.26,16.26,0,0,0,.25,3.12,4.08,4.08,0,0,0,1,2.07,3.82,3.82,0,0,0,2.78,1.13,3.74,3.74,0,0,0,2.8-1.13,4,4,0,0,0,1.06-2.07,15.41,15.41,0,0,0,.26-3.12" transform="translate(21.69 0)"/><polygon class="cls-4" points="297.69 53.09 293.08 53.09 289.11 46.62 285.11 53.09 280.5 53.09 287.01 43.4 280.75 34.11 285.36 34.11 289.11 40.29 292.83 34.11 297.44 34.11 291.22 43.4 297.69 53.09"/><g class="cls-5"><rect class="cls-6" x="20.49" width="52.39" height="69"/></g><g class="cls-7"><g class="cls-8"><g class="cls-9"><rect class="cls-10" x="25.93" y="8.81" width="45.74" height="60.19"/></g></g></g><g class="cls-7"><g class="cls-11"><g class="cls-12"><rect class="cls-13" x="21.69" y="8.81" width="46.59" height="60.19"/></g></g></g><g class="cls-7"><g class="cls-14"><g class="cls-15"><rect class="cls-16" x="27.73" y="18.27" width="43.94" height="50.73"/></g></g></g><g class="cls-7"><g class="cls-17"><g class="cls-18"><rect class="cls-19" x="21.69" y="18.27" width="43.94" height="50.73"/></g></g></g><g class="cls-20"><g class="cls-21"><g class="cls-22"><rect class="cls-23" x="-10.21" y="17.25" width="53.81" height="55.4" transform="translate(-3.07 20.85) rotate(-39.45)"/></g></g></g><path class="cls-24" d="M17,33.23c2.25-3.67,8-10.6,8-10.6s5.74,6.93,8,10.6c3.06,5,3.64,8.62,2.68,12a11.12,11.12,0,0,1-21.34,0c-1-3.42-.38-7.05,2.68-12" transform="translate(21.69 0)"/><path class="cls-25" d="M256.15,29.9,248,22.61l0,0,0,0-8.2,7.29s0,1,8.23,1,8.22-1,8.22-1" transform="translate(21.69 0)"/></g></g></g></svg>